<?xml version="1.0" encoding="UTF-8" standalone="no"?>
<svg
   height="63.999985"
   viewBox="0 0 64 63.999985"
   width="64"
   version="1.1"
   id="svg1"
   xml:space="preserve"
   xmlns="http://www.w3.org/2000/svg"
   xmlns:svg="http://www.w3.org/2000/svg"><defs
     id="defs1" /><path
     id="path5"
     style="fill:#8da5f3;fill-opacity:1;stroke:none;stroke-width:1.65681;stroke-linecap:round;stroke-linejoin:miter;stroke-miterlimit:10;stroke-dasharray:none;stroke-opacity:1;paint-order:markers stroke fill"
     d="M 31.981622,2.9202434e-7 A 32.002629,32.002629 0 0 0 3.7315674e-6,32.018378 32.002629,32.002629 0 0 0 6.5801217,51.317617 L 14.04251,44.039057 31.981622,3.0878713 h 1.139633 L 39.701373,18.968398 51.942619,6.9844963 A 32.002629,32.002629 0 0 0 31.981622,2.9202434e-7 Z M 55.324517,10.145883 41.576094,23.563464 52.383679,49.626649 H 14.851245 L 9.5944947,54.773106 A 32.002629,32.002629 0 0 0 31.981622,63.999979 32.002629,32.002629 0 0 0 63.999999,32.018378 32.002629,32.002629 0 0 0 55.324517,10.145883 Z M 30.768528,13.344047 19.777134,38.414687 34.92246,23.600222 Z M 36.797237,28.195289 17.755306,46.796085 H 44.3699 Z" /></svg>
